<svg xmlns="http://www.w3.org/2000/svg" viewBox="0 0 36 36" id="gucci">
  <path fill="#EFEFEF" d="M3.442 23.883c6.061 3.333 8.497 8.761 11.417 10.367 2.921 1.606 9.978 3.299 17.366-10.137s.221-19.945-2.992-21.712C14.191-5.869-7.292 17.981 3.442 23.883z"></path>
  <path fill="#2FDF84" fill-rule="evenodd" d="M21.913 10.75A7.29 7.29 0 0 0 18 11.881a7.29 7.29 0 0 0-3.913-1.131c-4.05 0-7.337 3.248-7.337 7.25s3.287 7.25 7.337 7.25c.861 0 1.683-.145 2.455-.416A7.049 7.049 0 0 0 18 24.119c.45.29.939.532 1.458.715a7.39 7.39 0 0 0 2.456.416c4.05 0 7.337-3.248 7.337-7.25s-3.288-7.25-7.338-7.25z" clip-rule="evenodd"></path>
  <path fill="#00B871" fill-rule="evenodd" d="M9 18c0-3.627 2.702-6.625 6.222-7.157a7.334 7.334 0 0 0-1.135-.093c-4.05 0-7.337 3.248-7.337 7.25s3.287 7.25 7.337 7.25c.383 0 .755-.039 1.122-.095C11.695 24.617 9 21.622 9 18zm11.25-6.119a7.255 7.255 0 0 1 2.778-1.038 7.454 7.454 0 0 0-1.115-.093c-.988 0-1.928.208-2.788.563.392.161.773.344 1.125.568zm1.458 12.953a7.049 7.049 0 0 1-1.458-.715 7.046 7.046 0 0 1-1.125.575c.111.046.218.1.333.14a7.39 7.39 0 0 0 2.456.416c.385 0 .76-.038 1.128-.095a7.27 7.27 0 0 1-1.334-.321z" clip-rule="evenodd"></path>
  <path fill="#A4AFC1" d="M4.25 12.21c-.827 0-1.5-.673-1.5-1.5s.673-1.5 1.5-1.5 1.5.673 1.5 1.5-.673 1.5-1.5 1.5zm0-2a.5.5 0 1 0 0 1 .5.5 0 0 0 0-1zM25.25 29.125h2v1h-2zM31 29.125h2v1h-2zM28.5 31.625h1v2h-1zM28.5 25.875h1v2h-1z"></path>
  <path d="M21.913 26a8.155 8.155 0 0 1-2.703-.458 7.793 7.793 0 0 1-1.616-.793 8.001 8.001 0 0 1-1.611-1.329 7.744 7.744 0 0 1-1.986-3.824.75.75 0 0 1 .735-.896h2.55v1.5h-1.565a6.28 6.28 0 0 0 1.359 2.194c.383.414.826.778 1.323 1.09.414.267.852.481 1.309.643a6.657 6.657 0 0 0 2.205.373c3.632 0 6.587-2.916 6.587-6.5s-2.955-6.5-6.587-6.5a6.531 6.531 0 0 0-3.511 1.014 6.355 6.355 0 0 0-2.688 3.316l-.247.708-1.417-.493.246-.708a7.85 7.85 0 0 1 3.311-4.096A8.028 8.028 0 0 1 21.913 10C26.372 10 30 13.589 30 18s-3.628 8-8.087 8z"></path>
  <path d="M14.087 26C9.628 26 6 22.411 6 18s3.628-8 8.087-8c1.539 0 3.032.432 4.315 1.248a7.837 7.837 0 0 1 3.3 4.089l.246.708-1.417.493-.247-.708a6.342 6.342 0 0 0-2.677-3.31 6.54 6.54 0 0 0-3.521-1.021C10.455 11.5 7.5 14.416 7.5 18s2.955 6.5 6.587 6.5c.757 0 1.5-.125 2.208-.374a6.24 6.24 0 0 0 1.299-.638 6.567 6.567 0 0 0 1.324-1.088 6.298 6.298 0 0 0 1.364-2.201h-1.564v-1.5h2.55a.75.75 0 0 1 .735.896 7.76 7.76 0 0 1-1.992 3.831 8.008 8.008 0 0 1-1.612 1.327 7.798 7.798 0 0 1-1.606.788 8.16 8.16 0 0 1-2.706.459z"></path>
</svg>