<?xml version="1.0" standalone="no"?>
<!DOCTYPE svg PUBLIC "-//W3C//DTD SVG 20010904//EN"
 "http://www.w3.org/TR/2001/REC-SVG-20010904/DTD/svg10.dtd">
<svg version="1.0" xmlns="http://www.w3.org/2000/svg"
 width="512.000000pt" height="512.000000pt" viewBox="0 0 512.000000 512.000000"
 preserveAspectRatio="xMidYMid meet">

<g transform="translate(0.000000,512.000000) scale(0.100000,-0.100000)"
fill="#000000" stroke="none">
<path d="M2453 5102 c-68 -24 -110 -54 -240 -171 -116 -105 -220 -218 -339
-366 -90 -114 -108 -123 -226 -105 -198 29 -630 29 -740 0 -62 -17 -118 -52
-166 -104 -67 -72 -73 -105 -29 -153 34 -38 63 -29 127 36 37 38 72 64 97 71
59 18 429 24 568 10 241 -24 255 -24 316 -1 66 25 103 59 189 171 77 102 365
393 433 437 96 63 168 54 279 -36 99 -80 297 -284 393 -406 98 -123 116 -139
185 -166 59 -23 100 -23 300 2 118 14 527 6 585 -11 51 -16 109 -74 125 -125
17 -58 25 -467 11 -585 -25 -200 -25 -241 -2 -300 27 -69 43 -87 166 -184 116
-91 396 -369 442 -439 59 -89 53 -167 -19 -259 -65 -84 -313 -327 -423 -414
-124 -98 -139 -115 -166 -184 -23 -60 -23 -100 2 -300 14 -122 6 -528 -13
-585 -7 -22 -34 -61 -60 -87 -55 -56 -62 -91 -25 -126 39 -37 80 -29 137 24
101 94 121 180 121 519 0 190 -5 257 -27 422 -10 81 4 102 140 211 210 168
449 422 498 528 32 70 32 198 0 268 -49 106 -288 360 -498 528 -77 62 -126
108 -134 128 -10 25 -10 48 0 123 30 223 28 639 -4 750 -31 106 -127 202 -232
233 -112 32 -541 34 -752 4 -122 -18 -133 -12 -249 133 -172 215 -423 452
-529 499 -68 30 -173 34 -241 10z"/>
<path d="M1584 4930 c-24 -9 -54 -47 -54 -68 0 -26 93 -238 112 -254 45 -40
119 -4 117 58 0 16 -21 78 -47 138 -40 93 -52 111 -77 122 -18 7 -39 8 -51 4z"/>
<path d="M3483 4925 c-25 -11 -37 -30 -76 -125 -26 -62 -47 -124 -47 -139 0
-57 75 -91 118 -53 19 17 112 228 112 255 0 21 -36 64 -58 69 -11 3 -32 0 -49
-7z"/>
<path d="M2370 4340 c-216 -25 -412 -84 -615 -186 -676 -337 -1067 -1071 -970
-1821 103 -792 714 -1417 1510 -1545 103 -16 427 -16 530 0 317 51 621 186
860 382 85 70 233 222 298 307 165 215 289 497 338 769 31 170 31 458 0 628
-24 136 -82 318 -140 442 -244 521 -738 901 -1301 1004 -130 24 -390 34 -510
20z m330 -150 c388 -35 738 -198 1015 -475 132 -133 224 -259 305 -420 199
-398 230 -835 90 -1257 -87 -261 -258 -519 -465 -700 -752 -660 -1890 -511
-2448 320 -362 538 -361 1265 2 1807 300 450 790 718 1341 734 25 0 97 -4 160
-9z"/>
<path d="M1688 3286 c-48 -13 -61 -21 -112 -65 -58 -52 -93 -170 -66 -220 5
-10 22 -24 39 -30 24 -10 34 -10 60 3 17 9 33 26 35 39 3 12 7 35 11 50 10 46
48 77 95 77 23 0 50 -5 61 -10 23 -13 49 -61 49 -93 0 -60 87 -90 131 -44 17
18 20 30 16 73 -16 156 -169 262 -319 220z"/>
<path d="M3298 3286 c-26 -7 -55 -19 -65 -26 -78 -59 -112 -114 -120 -194 -4
-43 -1 -55 16 -73 44 -46 131 -16 131 44 0 32 26 80 49 93 11 5 38 10 61 10
47 0 85 -30 95 -74 3 -14 7 -37 10 -51 4 -16 18 -31 39 -41 30 -15 35 -15 64
0 36 19 47 49 38 107 -24 148 -175 245 -318 205z"/>
<path d="M2344 2900 c-56 -21 -63 -84 -15 -134 86 -89 227 -120 343 -76 79 30
151 96 151 139 0 69 -78 98 -132 48 -80 -75 -179 -76 -261 -2 -30 26 -58 35
-86 25z"/>
<path d="M685 3980 c-27 -10 -41 -28 -49 -62 -8 -34 10 -351 25 -449 18 -117
10 -131 -134 -246 -223 -179 -464 -436 -503 -540 -25 -65 -25 -181 0 -246 40
-104 279 -360 503 -539 145 -116 151 -128 133 -250 -31 -213 -28 -639 4 -752
31 -105 127 -201 233 -232 110 -32 542 -34 750 -4 123 18 134 13 250 -133 169
-211 423 -451 529 -499 64 -30 187 -32 257 -4 103 39 359 278 539 502 118 147
126 152 246 135 113 -16 371 -29 445 -23 46 4 61 9 77 30 27 33 25 68 -5 97
-23 24 -29 25 -153 25 -71 0 -178 6 -238 12 -60 7 -147 13 -194 13 -124 0
-166 -25 -278 -170 -99 -128 -361 -392 -445 -449 -51 -35 -64 -39 -117 -39
-53 0 -66 4 -117 39 -84 57 -346 321 -445 449 -112 144 -154 170 -278 170 -47
0 -143 -6 -214 -14 -154 -16 -507 -10 -571 11 -51 16 -106 72 -123 123 -21 63
-28 435 -11 580 8 66 14 158 14 205 0 124 -26 166 -170 278 -128 99 -392 361
-449 445 -35 51 -39 64 -39 117 0 53 4 66 39 117 57 84 321 346 449 445 171
133 190 182 161 428 -9 74 -16 188 -16 252 0 126 -9 160 -47 177 -27 13 -31
13 -58 1z"/>
<path d="M218 3570 c-32 -25 -39 -49 -23 -87 11 -25 30 -37 125 -76 62 -26
124 -47 139 -47 57 0 91 75 54 118 -18 19 -229 112 -256 112 -8 0 -26 -9 -39
-20z"/>
<path d="M4731 3541 c-63 -27 -120 -57 -128 -67 -32 -44 4 -114 59 -114 14 0
76 21 138 47 95 39 114 51 125 76 7 17 10 38 7 49 -6 23 -49 58 -71 58 -9 -1
-67 -23 -130 -49z"/>
<path d="M316 1712 c-91 -39 -112 -52 -121 -76 -7 -16 -10 -38 -7 -48 5 -22
48 -58 69 -58 27 0 238 93 256 112 39 45 3 119 -59 117 -16 0 -78 -21 -138
-47z"/>
<path d="M4612 1737 c-27 -28 -28 -68 -4 -95 17 -19 228 -112 255 -112 21 0
64 36 69 58 3 11 0 32 -7 49 -11 25 -30 37 -125 76 -127 53 -157 57 -188 24z"/>
<path d="M1642 513 c-19 -18 -112 -229 -112 -256 0 -21 36 -64 58 -69 11 -3
32 0 49 7 25 11 37 30 76 125 26 62 47 124 47 139 0 57 -75 91 -118 54z"/>
<path d="M3382 507 c-31 -33 -28 -61 25 -187 39 -95 51 -114 76 -125 17 -7 38
-10 49 -7 22 5 58 48 58 69 0 27 -93 238 -112 256 -28 24 -70 21 -96 -6z"/>
</g>
</svg>
